<?xml version="1.0" encoding="UTF-8" standalone="no"?>
<!-- Created with Inkscape (http://www.inkscape.org/) -->

<svg
        xmlns:svg="http://www.w3.org/2000/svg"
        width="1147.9434"
        height="366.08026"
        viewBox="0 0 1147.9434 366.08026"
        version="1.1"
        id="svg5"
        xml:space="preserve"
        xmlns="http://www.w3.org/2000/svg"><defs
     id="defs2"><filter
       style="color-interpolation-filters:sRGB"
       id="filter3560"
       x="-0.025726745"
       y="-0.025726745"
       width="1.0728924"
       height="1.0728924"><feFlood
         flood-opacity="0.498039"
         flood-color="rgb(0,0,0)"
         result="flood"
         id="feFlood3550" /><feComposite
        in="flood"
        in2="SourceGraphic"
        operator="in"
        result="composite1"
        id="feComposite3552"/><feGaussianBlur
        in="composite1"
        stdDeviation="3"
        result="blur"
        id="feGaussianBlur3554"/><feOffset
        dx="6"
        dy="6"
        result="offset"
        id="feOffset3556"/><feComposite
        in="SourceGraphic"
        in2="offset"
        operator="over"
        result="composite2"
        id="feComposite3558"/></filter></defs>
    <g
            id="layer1"
            transform="translate(-72.260414,-72.959885)"><g
       id="g5808"><g
         id="g5766"><rect
           style="fill:#56795e;fill-opacity:1;stroke-width:3.77953;stroke-linecap:round;stroke-linejoin:round"
           id="rect552"
           width="279.86441"
           height="279.86441"
           x="-134.01492"
           y="221.31461"
           ry="36.309834"
           transform="rotate(-43.983134)" /><rect
            style="fill:#e7eab8;fill-opacity:1;stroke-width:3.77953;stroke-linecap:round;stroke-linejoin:round;filter:url(#filter3560)"
            id="rect1316"
            width="279.86441"
            height="279.86441"
            x="33.681377"
            y="210.68405"
            ry="36.309834"
            transform="rotate(-13.482818,-186.59466,-41.563435)"/><path
            id="path1378"
            style="fill:#729a7b;fill-opacity:1;stroke-width:3.77953;stroke-linecap:round;stroke-linejoin:round"
            d="m 295.41391,298.30879 -99.94979,-86.95953 -23.86524,119.32227 -39.53125,12.07812 11.14063,46.4668 c 4.69003,19.56124 24.21415,31.53378 43.77539,26.84375 l 201.5332,-48.32032 c 19.56124,-4.69003 31.53378,-24.21415 26.84375,-43.77539 l -13.43359,-56.03125 -26.39649,1.99219 z"/><path
            style="font-size:400px;font-family:Poppins;-inkscape-font-specification:Poppins;text-align:end;text-anchor:end;fill:#729a7b;fill-opacity:1;stroke-width:2.91942;stroke-linecap:round;stroke-linejoin:round"
            d="M 297.79428,181.26861 V 315.44935 H 262.31532 V 181.26861 Z"
            id="path402"/><path
            style="font-size:400px;font-family:Poppins;-inkscape-font-specification:Poppins;text-align:end;text-anchor:end;fill:#385854;fill-opacity:1;stroke-width:3.24389;stroke-linecap:round;stroke-linejoin:round"
            d="m 280.3981,168.82221 q -8.9261,0 -15.10571,-6.17961 -6.17961,-6.17961 -6.17961,-15.10572 0,-8.9261 6.17961,-15.10571 6.17962,-6.17961 15.10571,-6.17961 8.5828,0 14.4191,6.17961 6.17962,6.17961 6.17962,15.10571 0,8.92611 -6.17962,15.10572 -5.8363,6.17961 -14.4191,6.17961 z"
            id="path396"/></g><g
            aria-label="InkStock"
            id="text4400"
            style="font-weight:bold;font-size:160.846px;font-family:Poppins;-inkscape-font-specification:'Poppins Bold';text-align:end;text-anchor:end;fill:#e7eab8;stroke-width:1.5198;stroke-linecap:round;stroke-linejoin:round"><path
           d="M 539.50472,201.24871 V 314.1626 H 512.00006 V 201.24871 Z"
           id="path5776" />
        <path
                d="m 614.13697,223.44546 q 15.7629,0 25.09197,10.29414 9.48992,10.1333 9.48992,27.9872 v 52.4358 h -27.34382 v -48.73634 q 0,-9.00737 -4.66454,-13.9936 -4.66453,-4.98623 -12.54598,-4.98623 -7.88146,0 -12.54599,4.98623 -4.66454,4.98623 -4.66454,13.9936 v 48.73634 h -27.50466 v -89.75207 h 27.50466 v 11.90261 q 4.182,-5.9513 11.25922,-9.32907 7.07723,-3.53861 15.92376,-3.53861 z"
                id="path5778"/>
        <path
                d="M 722.70798,314.1626 695.36416,276.52464 V 314.1626 H 667.85949 V 195.13656 h 27.50467 v 65.78601 l 27.18297,-36.51204 h 33.93851 l -37.31627,45.03688 37.63796,44.71519 z"
                id="path5780"/>
        <path
                d="m 808.1169,315.28852 q -12.38514,0 -22.19674,-4.02115 -9.81161,-4.02115 -15.76291,-11.9026 -5.79046,-7.88146 -6.11215,-18.97983 h 29.27397 q 0.64339,6.27299 4.34284,9.65076 3.69946,3.21692 9.65076,3.21692 6.11215,0 9.65076,-2.73438 3.53861,-2.89523 3.53861,-7.88146 0,-4.18199 -2.89522,-6.91637 -2.73439,-2.73439 -6.91638,-4.50369 -4.02115,-1.76931 -11.58091,-4.02115 -10.93753,-3.37777 -17.85391,-6.75553 -6.91638,-3.37777 -11.9026,-9.97246 -4.98623,-6.59468 -4.98623,-17.21052 0,-15.7629 11.42007,-24.60943 11.42006,-9.00738 29.75651,-9.00738 18.65813,0 30.0782,9.00738 11.42006,8.84653 12.22429,24.77028 h -29.75651 q -0.32169,-5.46876 -4.02115,-8.52484 -3.69945,-3.21692 -9.48991,-3.21692 -4.98623,0 -8.0423,2.73438 -3.05607,2.57354 -3.05607,7.55977 0,5.46876 5.14707,8.52483 5.14707,3.05608 16.0846,6.59469 10.93753,3.69946 17.69306,7.07722 6.91638,3.37777 11.9026,9.81161 4.98623,6.43384 4.98623,16.56714 0,9.65075 -4.98623,17.53221 -4.82538,7.88145 -14.15445,12.54599 -9.32906,4.66453 -22.0359,4.66453 z"
                id="path5782"/>
        <path
                d="m 916.20535,290.83993 v 23.32267 h -13.9936 q -14.95868,0 -23.32267,-7.23807 -8.36399,-7.39892 -8.36399,-23.96605 v -35.70782 h -10.93753 v -22.84013 h 10.93753 v -21.87505 h 27.50466 v 21.87505 h 18.01476 v 22.84013 h -18.01476 v 36.02951 q 0,4.02115 1.93016,5.79045 1.93015,1.76931 6.43384,1.76931 z"
                id="path5784"/>
        <path
                d="m 972.34035,315.44937 q -13.18937,0 -23.8052,-5.62961 -10.45499,-5.62961 -16.56714,-16.0846 -5.9513,-10.45499 -5.9513,-24.44859 0,-13.83276 6.11214,-24.28775 6.11215,-10.61583 16.72799,-16.24544 10.61583,-5.62961 23.8052,-5.62961 13.18938,0 23.80521,5.62961 10.61585,5.62961 16.72795,16.24544 6.1122,10.45499 6.1122,24.28775 0,13.83275 -6.273,24.44859 -6.1122,10.45499 -16.88884,16.0846 -10.61584,5.62961 -23.80521,5.62961 z m 0,-23.80521 q 7.88146,0 13.35022,-5.79046 5.62961,-5.79045 5.62961,-16.56713 0,-10.77669 -5.46876,-16.56714 -5.30792,-5.79046 -13.18938,-5.79046 -8.0423,0 -13.35021,5.79046 -5.30792,5.62961 -5.30792,16.56714 0,10.77668 5.14707,16.56713 5.30792,5.79046 13.18937,5.79046 z"
                id="path5786"/>
        <path
                d="m 1028.4754,269.28657 q 0,-13.99361 5.6297,-24.4486 5.7904,-10.45498 15.9237,-16.08459 10.2942,-5.62961 23.4835,-5.62961 16.8889,0 28.1481,8.84653 11.42,8.84652 14.9587,24.93112 h -29.274 q -3.6995,-10.29414 -14.3153,-10.29414 -7.5598,0 -12.0635,5.9513 -4.5037,5.79046 -4.5037,16.72799 0,10.93752 4.5037,16.88882 4.5037,5.79046 12.0635,5.79046 10.6158,0 14.3153,-10.29414 h 29.274 q -3.5387,15.7629 -14.9587,24.77028 -11.4201,9.00738 -28.1481,9.00738 -13.1893,0 -23.4835,-5.62961 -10.1333,-5.62961 -15.9237,-16.0846 -5.6297,-10.45499 -5.6297,-24.44859 z"
                id="path5788"/>
        <path
                d="m 1186.1045,314.1626 -27.3439,-37.63796 V 314.1626 H 1131.256 V 195.13656 h 27.5046 v 65.78601 l 27.183,-36.51204 h 33.9385 l -37.3163,45.03688 37.638,44.71519 z"
                id="path5790"/></g></g></g></svg>
